<svg width="100%" height="100%" xmlns="http://www.w3.org/2000/svg">
	<symbol id="arrowPrev"  viewBox="0 0 49 32">
		<g>
		<title>background</title>
		<rect fill="transparent" id="canvas_background" height="34" width="51" y="-1" x="-1"/>
		<g display="none" overflow="visible" y="0" x="0" height="100%" width="100%" id="canvasGrid">
			<rect fill="url(#gridpattern)" stroke-width="0" y="0" x="0" height="100%" width="100%"/>
		</g>
		</g>
		<g>
		<title>Layer 1</title>
		<g fill="currentColor" id="svg_22">
			<g transform="matrix(0.1111088925048529,0,0,0.1111088925048529,0,0) " id="svg_5">
			<path id="svg_6" d="m407.690583,126.687535l-323.572,0l77.209,-77.214c6.764,-6.76 6.764,-17.726 0,-24.485c-6.764,-6.764 -17.73,-6.764 -24.484,0l-106.768,106.77c-6.764,6.76 -6.764,17.727 0,24.485l106.768,106.775c3.381,3.383 7.812,5.072 12.242,5.072c4.43,0 8.861,-1.689 12.242,-5.072c6.764,-6.76 6.764,-17.726 0,-24.484l-77.209,-77.218l323.572,0c9.562,0 17.316,-7.753 17.316,-17.315c0,-9.562 -7.753,-17.314 -17.316,-17.314z"/>
			</g>
			<g transform="matrix(0.1111088925048529,0,0,0.1111088925048529,0,0) " id="svg_7"/>
			<g transform="matrix(0.1111088925048529,0,0,0.1111088925048529,0,0) " id="svg_8"/>
			<g transform="matrix(0.1111088925048529,0,0,0.1111088925048529,0,0) " id="svg_9"/>
			<g transform="matrix(0.1111088925048529,0,0,0.1111088925048529,0,0) " id="svg_10"/>
			<g transform="matrix(0.1111088925048529,0,0,0.1111088925048529,0,0) " id="svg_11"/>
			<g transform="matrix(0.1111088925048529,0,0,0.1111088925048529,0,0) " id="svg_12"/>
			<g transform="matrix(0.1111088925048529,0,0,0.1111088925048529,0,0) " id="svg_13"/>
			<g transform="matrix(0.1111088925048529,0,0,0.1111088925048529,0,0) " id="svg_14"/>
			<g transform="matrix(0.1111088925048529,0,0,0.1111088925048529,0,0) " id="svg_15"/>
			<g transform="matrix(0.1111088925048529,0,0,0.1111088925048529,0,0) " id="svg_16"/>
			<g transform="matrix(0.1111088925048529,0,0,0.1111088925048529,0,0) " id="svg_17"/>
			<g transform="matrix(0.1111088925048529,0,0,0.1111088925048529,0,0) " id="svg_18"/>
			<g transform="matrix(0.1111088925048529,0,0,0.1111088925048529,0,0) " id="svg_19"/>
			<g transform="matrix(0.1111088925048529,0,0,0.1111088925048529,0,0) " id="svg_20"/>
			<g transform="matrix(0.1111088925048529,0,0,0.1111088925048529,0,0) " id="svg_21"/>
		</g>
		</g>
	</symbol>
</svg>