<svg width="100%" height="100%" xmlns="http://www.w3.org/2000/svg" stroke="null">
<symbol id="download"  viewBox="0 0 29 22">

 <g stroke="null">
  <title transform="translate(-1,-1) scale(0.7948718070983887,1) translate(1,1) " stroke="null">background</title>
  <rect stroke="null" fill="transparent" id="canvas_background" height="24" width="31" y="-1" x="-1"/>
  <g stroke="null" display="none" overflow="visible" y="0" x="0" height="100%" width="100%" id="canvasGrid">
   <rect fill="url(#gridpattern)" stroke-width="0" y="0" x="-0.205128" height="25" width="29.410257"/>
  </g>
 </g>
 <g stroke="null" fill="currentColor">
  <title transform="translate(0.43466952443122864,21.09395408630371) scale(0.7759019136428833,0.9062850475311279) translate(-0.43466952443122864,-21.09395408630371) " stroke="null">Layer 1</title>
  <g stroke="null" id="svg_23">
   <g stroke="null" transform="matrix(0.6295147428816432,0,0,0.32781890100417976,51.03068368705227,83.6021183270677) " id="svg_5">
    <path stroke="null" id="svg_6" d="m-67.686036,-221.365937c-0.391,-0.391 -1.023,-0.391 -1.414,0s-0.391,1.023 0,1.414l9.979,9.979c0.186,0.189 0.44,0.294 0.706,0.294c0.007,0 0.014,-0.004 0.021,-0.004c0.007,0 0.013,0.004 0.021,0.004c0.333,0 0.613,-0.173 0.795,-0.423l9.891,-9.891c0.391,-0.391 0.391,-1.023 0,-1.414s-1.023,-0.391 -1.414,0l-8.272,8.272l0,-35.544c0,-0.553 -0.447,-1 -1,-1s-1,0.447 -1,1l0,35.628l-8.313,-8.315z"/>
    <path stroke="null" id="svg_7" d="m-51.373036,-233.678937c-0.553,0 -1,0.447 -1,1s0.447,1 1,1l13,0l0,39l-40,0l0,-39l13,0c0.553,0 1,-0.447 1,-1s-0.447,-1 -1,-1l-15,0l0,43l44,0l0,-43l-15,0z"/>
   </g>
   <g stroke="null" transform="matrix(0.7179194608109234,0,0,0.3581863273496085,58.021927250510814,88.20675188979331) " id="svg_8"/>
   <g stroke="null" transform="matrix(0.7179194608109234,0,0,0.3581863273496085,58.021927250510814,88.20675188979331) " id="svg_9"/>
   <g stroke="null" transform="matrix(0.7179194608109234,0,0,0.3581863273496085,58.021927250510814,88.20675188979331) " id="svg_10"/>
   <g stroke="null" transform="matrix(0.7179194608109234,0,0,0.3581863273496085,58.021927250510814,88.20675188979331) " id="svg_11"/>
   <g stroke="null" transform="matrix(0.7179194608109234,0,0,0.3581863273496085,58.021927250510814,88.20675188979331) " id="svg_12"/>
   <g stroke="null" transform="matrix(0.7179194608109234,0,0,0.3581863273496085,58.021927250510814,88.20675188979331) " id="svg_13"/>
   <g stroke="null" transform="matrix(0.7179194608109234,0,0,0.3581863273496085,58.021927250510814,88.20675188979331) " id="svg_14"/>
   <g stroke="null" transform="matrix(0.7179194608109234,0,0,0.3581863273496085,58.021927250510814,88.20675188979331) " id="svg_15"/>
   <g stroke="null" transform="matrix(0.7179194608109234,0,0,0.3581863273496085,58.021927250510814,88.20675188979331) " id="svg_16"/>
   <g stroke="null" transform="matrix(0.7179194608109234,0,0,0.3581863273496085,58.021927250510814,88.20675188979331) " id="svg_17"/>
   <g stroke="null" transform="matrix(0.7179194608109234,0,0,0.3581863273496085,58.021927250510814,88.20675188979331) " id="svg_18"/>
   <g stroke="null" transform="matrix(0.7179194608109234,0,0,0.3581863273496085,58.021927250510814,88.20675188979331) " id="svg_19"/>
   <g stroke="null" transform="matrix(0.7179194608109234,0,0,0.3581863273496085,58.021927250510814,88.20675188979331) " id="svg_20"/>
   <g stroke="null" transform="matrix(0.7179194608109234,0,0,0.3581863273496085,58.021927250510814,88.20675188979331) " id="svg_21"/>
   <g stroke="null" transform="matrix(0.7179194608109234,0,0,0.3581863273496085,58.021927250510814,88.20675188979331) " id="svg_22"/>
  </g>
 </g>
 </symbol>
</svg>